<?xml version="1.0" encoding="UTF-8" standalone="no"?>
<svg
   xmlns:dc="http://purl.org/dc/elements/1.1/"
   xmlns:cc="http://creativecommons.org/ns#"
   xmlns:rdf="http://www.w3.org/1999/02/22-rdf-syntax-ns#"
   xmlns:svg="http://www.w3.org/2000/svg"
   xmlns="http://www.w3.org/2000/svg"
   viewBox="0 0 793.70667 793.70667"
   height="793.70667"
   width="793.70667"
   xml:space="preserve"
   id="svg2"
   version="1.1"><metadata
     id="metadata8"><rdf:RDF><cc:Work
         rdf:about=""><dc:format>image/svg+xml</dc:format><dc:type
           rdf:resource="http://purl.org/dc/dcmitype/StillImage" /></cc:Work></rdf:RDF></metadata><defs
     id="defs6" /><g
     transform="matrix(1.3333333,0,0,-1.3333333,0,793.70667)"
     id="g10"><g
       transform="scale(0.1)"
       id="g12"><path
         id="path14"
         style="fill:#969797;fill-opacity:1;fill-rule:nonzero;stroke:none"
         d="M 974.578,5071.43 H 475.039 c -16.301,0 -29.504,13.21 -29.504,29.5 v 0 c 0,16.3 13.203,29.52 29.504,29.52 h 499.539 c 16.297,0 29.502,-13.22 29.502,-29.52 v 0 c 0,-16.29 -13.205,-29.5 -29.502,-29.5" /><path
         id="path16"
         style="fill:#969797;fill-opacity:1;fill-rule:nonzero;stroke:none"
         d="m 413.965,5217.87 h -26.453 c -7.535,0 -13.649,-6.12 -13.649,-13.66 v -206.56 c 0,-7.54 6.114,-13.64 13.649,-13.64 h 26.453 c 7.539,0 13.652,6.1 13.652,13.64 v 206.56 c 0,7.54 -6.113,13.66 -13.652,13.66" /><path
         id="path18"
         style="fill:#969797;fill-opacity:1;fill-rule:nonzero;stroke:none"
         d="m 338.891,5196.79 h -26.446 c -7.539,0 -13.652,-6.12 -13.652,-13.66 v -164.39 c 0,-7.54 6.113,-13.65 13.652,-13.65 h 26.446 c 7.539,0 13.652,6.11 13.652,13.65 v 164.39 c 0,7.54 -6.113,13.66 -13.652,13.66" /><path
         id="path20"
         style="fill:#969797;fill-opacity:1;fill-rule:nonzero;stroke:none"
         d="m 270.621,5162.11 h -32.785 c -7.539,0 -13.652,-6.12 -13.652,-13.66 v -95.04 c 0,-7.52 6.113,-13.64 13.652,-13.64 h 32.785 c 4.043,0 7.317,3.27 7.317,7.32 v 107.7 c 0,4.03 -3.274,7.32 -7.317,7.32" /><path
         id="path22"
         style="fill:#969797;fill-opacity:1;fill-rule:nonzero;stroke:none"
         d="m 1035.35,4984.01 h 26.45 c 7.53,0 13.64,6.1 13.64,13.64 v 206.56 c 0,7.54 -6.11,13.66 -13.64,13.66 h -26.45 c -7.54,0 -13.66,-6.12 -13.66,-13.66 v -206.56 c 0,-7.54 6.12,-13.64 13.66,-13.64" /><path
         id="path24"
         style="fill:#969797;fill-opacity:1;fill-rule:nonzero;stroke:none"
         d="m 1110.42,5005.09 h 26.45 c 7.54,0 13.65,6.11 13.65,13.65 v 164.39 c 0,7.54 -6.11,13.66 -13.65,13.66 h -26.45 c -7.54,0 -13.66,-6.12 -13.66,-13.66 v -164.39 c 0,-7.54 6.12,-13.65 13.66,-13.65" /><path
         id="path26"
         style="fill:#969797;fill-opacity:1;fill-rule:nonzero;stroke:none"
         d="m 1178.69,5039.77 h 32.78 c 7.54,0 13.65,6.12 13.65,13.64 v 95.04 c 0,7.54 -6.11,13.66 -13.65,13.66 h -32.78 c -4.05,0 -7.32,-3.29 -7.32,-7.32 v -107.7 c 0,-4.05 3.27,-7.32 7.32,-7.32" /><path
         id="path28"
         style="fill:#969797;fill-opacity:1;fill-rule:nonzero;stroke:none"
         d="m 2181.19,4992.31 c 0,-173.11 -140.34,-313.46 -313.46,-313.46 -173.11,0 -313.45,140.35 -313.45,313.46 0,173.13 140.34,313.46 313.45,313.46 173.12,0 313.46,-140.33 313.46,-313.46" /><path
         id="path30"
         style="fill:#969797;fill-opacity:1;fill-rule:nonzero;stroke:none"
         d="m 1816.47,5474.52 c -45.37,0 -82.3,-36.91 -82.3,-82.31 v -179.83 c 0,-45.37 36.93,-82.29 82.3,-82.29 h 102.52 c 45.38,0 82.3,36.92 82.3,82.29 v 179.83 c 0,45.4 -36.92,82.31 -82.3,82.31 z m 102.52,-392.93 h -102.52 c -72.11,0 -130.79,58.67 -130.79,130.79 v 179.83 c 0,72.13 58.68,130.81 130.79,130.81 h 102.52 c 72.13,0 130.8,-58.68 130.8,-130.81 v -179.83 c 0,-72.12 -58.67,-130.79 -130.8,-130.79" /><path
         id="path32"
         style="fill:#ffffff;fill-opacity:1;fill-rule:nonzero;stroke:none"
         d="m 1686.37,5110.09 h 30.4 v -113.58 h 1.05 c 6.28,9.08 12.58,17.46 18.51,25.16 l 71.99,88.42 h 37.74 l -85.26,-99.96 91.9,-135.58 h -35.99 l -77.58,115.66 -22.36,-25.85 v -89.81 h -30.4 v 235.54" /><path
         id="path34"
         style="fill:#ffffff;fill-opacity:1;fill-rule:nonzero;stroke:none"
         d="m 2049.11,4885.04 c -13.63,-4.9 -40.54,-12.94 -72.34,-12.94 -35.65,0 -65,9.09 -88.06,31.1 -20.27,19.57 -32.85,51.01 -32.85,87.71 0.35,70.24 48.57,121.62 127.55,121.62 27.26,0 48.57,-5.95 58.7,-10.84 l -7.33,-24.81 c -12.58,5.6 -28.31,10.14 -52.07,10.14 -57.31,0 -94.7,-35.64 -94.7,-94.71 0,-59.75 35.99,-95.06 90.86,-95.06 19.91,0 33.54,2.81 40.53,6.3 v 70.25 h -47.87 v 24.46 h 77.58 v -113.22" /><path
         id="path36"
         style="fill:#969797;fill-opacity:1;fill-rule:nonzero;stroke:none"
         d="m 3072.7,5545.81 h -123.76 c -24.49,0 -44.35,-19.86 -44.35,-44.35 v -23.32 c 0,-24.49 19.86,-44.34 44.35,-44.34 h 10.55 v -37.09 h 102.66 v 37.09 h 10.55 c 24.48,0 44.34,19.85 44.34,44.34 v 23.32 c 0,24.49 -19.86,44.35 -44.34,44.35" /><path
         id="path38"
         style="fill:#969797;fill-opacity:1;fill-rule:nonzero;stroke:none"
         d="m 3010.82,5340 c -177.74,0 -322.34,-144.61 -322.34,-322.34 0,-177.73 144.6,-322.33 322.34,-322.33 177.73,0 322.32,144.6 322.32,322.33 0,177.73 -144.59,322.34 -322.32,322.34 z m 0,-683.94 c -199.39,0 -361.6,162.21 -361.6,361.6 0,199.39 162.21,361.59 361.6,361.59 199.39,0 361.59,-162.2 361.59,-361.59 0,-199.39 -162.2,-361.6 -361.59,-361.6" /><path
         id="path40"
         style="fill:#969797;fill-opacity:1;fill-rule:nonzero;stroke:none"
         d="m 3010.82,5293.06 c -151.86,0 -275.4,-123.54 -275.4,-275.4 0,-151.86 123.54,-275.41 275.4,-275.41 151.87,0 275.4,123.55 275.4,275.41 0,151.86 -123.53,275.4 -275.4,275.4 z m 0,-572.62 c -163.89,0 -297.22,133.33 -297.22,297.22 0,163.89 133.33,297.22 297.22,297.22 163.88,0 297.22,-133.33 297.22,-297.22 0,-163.89 -133.34,-297.22 -297.22,-297.22" /><path
         id="path42"
         style="fill:#969797;fill-opacity:1;fill-rule:nonzero;stroke:none"
         d="m 2786.75,5330.7 c -16.66,18.37 -45.07,19.78 -63.45,3.12 v 0 c -18.38,-16.68 -19.78,-45.07 -3.11,-63.45 l 25.22,-27.83 66.57,60.33 -25.23,27.83" /><path
         id="path44"
         style="fill:#969797;fill-opacity:1;fill-rule:nonzero;stroke:none"
         d="m 2753.45,5330.18 c -7.36,0 -14.43,-2.73 -19.9,-7.68 -5.86,-5.32 -9.3,-12.6 -9.7,-20.52 -0.38,-7.9 2.33,-15.49 7.65,-21.37 l 14.97,-16.5 43.94,39.82 -14.97,16.51 c -5.61,6.19 -13.63,9.74 -21.99,9.74 z m -8.04,-102.92 c -0.25,0 -0.5,0.01 -0.75,0.02 -4.04,0.21 -7.85,1.99 -10.56,5 l -25.23,27.83 c -22.28,24.59 -20.41,62.73 4.18,85.02 11.1,10.05 25.44,15.59 40.4,15.59 16.97,0 33.22,-7.21 44.62,-19.77 l 25.22,-27.83 c 2.72,-2.99 4.13,-6.96 3.94,-10.99 -0.2,-4.06 -2,-7.86 -5,-10.58 l -66.56,-60.33 c -2.82,-2.55 -6.48,-3.96 -10.26,-3.96" /><path
         id="path46"
         style="fill:#969797;fill-opacity:1;fill-rule:nonzero;stroke:none"
         d="m 3010.83,5002.35 c -3.62,0 -7.2,1.62 -9.56,4.73 l -134.09,176.16 c -4.01,5.28 -2.99,12.81 2.29,16.83 5.27,4.01 12.8,2.99 16.81,-2.29 l 134.09,-176.17 c 4.01,-5.27 2.99,-12.81 -2.28,-16.81 -2.17,-1.66 -4.73,-2.45 -7.26,-2.45" /><path
         id="path48"
         style="fill:#969797;fill-opacity:1;fill-rule:nonzero;stroke:none"
         d="m 3043.18,5014.34 c 0,-17.87 -14.48,-32.35 -32.36,-32.35 -17.86,0 -32.36,14.48 -32.36,32.35 0,17.87 14.5,32.37 32.36,32.37 17.88,0 32.36,-14.5 32.36,-32.37" /><path
         id="path50"
         style="fill:#969797;fill-opacity:1;fill-rule:nonzero;stroke:none"
         d="m 4344.16,5522.03 h -380.52 c -27.05,0 -48.97,-21.92 -48.97,-48.98 v -43.32 c 0,-27.06 21.92,-48.98 48.97,-48.98 h 380.52 c 27.05,0 48.97,21.92 48.97,48.98 v 43.32 c 0,27.06 -21.92,48.98 -48.97,48.98" /><path
         id="path52"
         style="fill:#969797;fill-opacity:1;fill-rule:nonzero;stroke:none"
         d="m 4336.43,5344.46 h -365.05 c -59.71,0 -108.12,-48.4 -108.12,-108.1 v -448.4 c 0,-59.71 48.41,-108.11 108.12,-108.11 h 365.05 c 59.7,0 108.11,48.4 108.11,108.11 v 448.4 c 0,59.7 -48.41,108.1 -108.11,108.1" /><path
         id="path54"
         style="fill:#ffffff;fill-opacity:1;fill-rule:nonzero;stroke:none"
         d="m 4401.58,4807.46 h -495.36 v 409.4 h 495.36 v -409.4" /><path
         id="path56"
         style="fill:#969797;fill-opacity:1;fill-rule:nonzero;stroke:none"
         d="m 4128.76,4846.55 c -2.55,0 -5.17,0.61 -7.61,1.86 -8.12,4.2 -11.29,14.2 -7.07,22.34 l 66.8,128.95 h -81.18 c -5.45,0 -10.57,2.67 -13.66,7.17 -3.09,4.49 -3.76,10.23 -1.81,15.31 l 55.53,144.94 c 3.27,8.54 12.84,12.81 21.39,9.54 8.55,-3.27 12.81,-12.86 9.53,-21.39 l -46.91,-122.44 h 84.35 c 5.78,0 11.13,-3.02 14.15,-7.97 2.99,-4.93 3.21,-11.08 0.54,-16.22 L 4143.5,4855.5 c -2.96,-5.69 -8.73,-8.95 -14.74,-8.95" /><path
         id="path58"
         style="fill:#969797;fill-opacity:1;fill-rule:nonzero;stroke:none"
         d="m 5558.73,5482.9 h -523.5 c -66.38,0 -120.2,-53.83 -120.2,-120.22 v -523.49 c 0,-66.39 53.82,-120.21 120.2,-120.21 h 523.5 c 66.39,0 120.2,53.82 120.2,120.21 v 523.49 c 0,66.39 -53.81,120.22 -120.2,120.22" /><path
         id="path60"
         style="fill:#ffffff;fill-opacity:1;fill-rule:nonzero;stroke:none"
         d="m 5035.23,5446.08 c -45.98,0 -83.39,-37.41 -83.39,-83.4 v -523.49 c 0,-45.99 37.41,-83.4 83.39,-83.4 h 523.5 c 45.98,0 83.4,37.41 83.4,83.4 v 523.49 c 0,45.99 -37.42,83.4 -83.4,83.4 z m 523.5,-699.39 h -523.5 c -51,0 -92.5,41.49 -92.5,92.5 v 523.49 c 0,51.01 41.5,92.5 92.5,92.5 h 523.5 c 51,0 92.5,-41.49 92.5,-92.5 v -523.49 c 0,-51.01 -41.5,-92.5 -92.5,-92.5" /><path
         id="path62"
         style="fill:#ffffff;fill-opacity:1;fill-rule:nonzero;stroke:none"
         d="m 5437.81,5324.68 c -19.88,61.17 -76.48,102.27 -140.84,102.27 -64.35,0 -120.95,-41.1 -140.84,-102.27 -0.74,-2.29 0.06,-4.81 2,-6.25 l 101.3,-75.98 c 0.96,-0.74 2.15,-1.13 3.38,-1.13 h 68.32 c 1.23,0 2.42,0.39 3.4,1.13 l 101.31,75.98 c 1.91,1.44 2.71,3.96 1.97,6.25" /><path
         id="path64"
         style="fill:#969797;fill-opacity:1;fill-rule:nonzero;stroke:none"
         d="m 5296.97,5261.25 c -3.3,0 -6.48,1.89 -7.95,5.11 l -53.88,117.34 c -2.01,4.39 -0.08,9.59 4.31,11.6 4.38,2.02 9.57,0.09 11.59,-4.3 l 53.88,-117.35 c 2.01,-4.4 0.1,-9.59 -4.29,-11.6 -1.18,-0.54 -2.43,-0.8 -3.66,-0.8" /><path
         id="path66"
         style="fill:#969797;fill-opacity:1;fill-rule:nonzero;stroke:none"
         d="m 1046.37,3720.63 c -2.7,28.54 -8.17,57.41 -20.24,83.56 -9.66,20.91 -25.52,41.74 -41.458,58.22 -29.66,30.66 -69.984,52.56 -112.969,55.53 -22.308,1.54 -44.648,-1.75 -66.535,-5.78 -12.996,-2.39 -25.93,-5.12 -38.855,-7.91 -13.239,-2.86 -28.165,-8.56 -41.661,-9.17 -13.496,0.61 -28.418,6.31 -41.668,9.17 -12.918,2.79 -25.843,5.52 -38.843,7.91 -21.895,4.03 -44.223,7.32 -66.539,5.78 -42.977,-2.97 -83.305,-24.87 -112.969,-55.53 -15.934,-16.48 -31.797,-37.31 -41.449,-58.22 -12.071,-26.15 -17.543,-55.02 -20.246,-83.56 -3.36,-35.51 -4.762,-72.26 0.71,-107.63 9.848,-63.69 40.114,-128.96 75.817,-182.09 10.422,-15.5 21.914,-30.33 34.523,-44.12 39.442,-43.06 89.758,-76.63 151.157,-68.36 19.742,2.67 40.05,3.78 59.507,7.82 19.457,-4.04 39.774,-5.15 59.508,-7.82 61.403,-8.27 111.719,25.3 151.16,68.36 12.614,13.79 24.098,28.62 34.524,44.12 35.706,53.13 65.966,118.4 75.816,182.09 5.48,35.37 4.07,72.12 0.71,107.63" /><path
         id="path68"
         style="fill:#969797;fill-opacity:1;fill-rule:nonzero;stroke:none"
         d="m 881.023,4063.59 -0.089,-0.07 c -37.649,18.53 -88.625,7.44 -122.016,-22.2 -24.523,-21.77 -42.539,-61.05 -28.805,-89.56 0.762,-1.41 1.664,-2.4 2.192,-2.91 23.656,-21.02 66.386,-14.42 94.035,3.22 37.648,24.02 62.238,70.03 54.707,111.3 l 0.098,0.07 c -0.04,0.01 -0.075,0.02 -0.106,0.04 -0.008,0.03 -0.008,0.07 -0.016,0.11" /><path
         id="path70"
         style="fill:#969797;fill-opacity:1;fill-rule:nonzero;stroke:none"
         d="m 2950.84,3977.19 c 0,-59.65 -48.36,-108.01 -108.02,-108.01 -59.66,0 -108.02,48.36 -108.02,108.01 0,59.66 48.36,108.02 108.02,108.02 59.66,0 108.02,-48.36 108.02,-108.02" /><path
         id="path72"
         style="fill:#969797;fill-opacity:1;fill-rule:nonzero;stroke:none"
         d="m 2842.82,3846.5 c -22.31,0 -43.33,5.64 -61.72,15.54 -3.15,1.69 -6.95,-0.64 -6.95,-4.21 v -313.27 c 0,-3.58 3.8,-5.91 6.95,-4.22 18.39,9.91 39.41,15.55 61.72,15.55 22.32,0 43.34,-5.64 61.73,-15.55 3.15,-1.69 6.95,0.64 6.95,4.22 v 313.27 c 0,3.57 -3.8,5.9 -6.95,4.21 -18.39,-9.9 -39.41,-15.54 -61.73,-15.54" /><path
         id="path74"
         style="fill:#969797;fill-opacity:1;fill-rule:nonzero;stroke:none"
         d="m 2950.84,3425.18 c 0,-59.65 -48.36,-108.01 -108.02,-108.01 -59.66,0 -108.02,48.36 -108.02,108.01 0,59.66 48.36,108.03 108.02,108.03 59.66,0 108.02,-48.37 108.02,-108.03" /><path
         id="path76"
         style="fill:#969797;fill-opacity:1;fill-rule:nonzero;stroke:none"
         d="m 3286.83,3977.19 c 0,-59.65 -48.35,-108.01 -108.02,-108.01 -59.65,0 -108.02,48.36 -108.02,108.01 0,59.66 48.37,108.02 108.02,108.02 59.67,0 108.02,-48.36 108.02,-108.02" /><path
         id="path78"
         style="fill:#969797;fill-opacity:1;fill-rule:nonzero;stroke:none"
         d="m 3178.81,3846.5 c -22.31,0 -43.33,5.64 -61.72,15.54 -3.14,1.69 -6.94,-0.64 -6.94,-4.21 v -313.27 c 0,-3.58 3.8,-5.91 6.94,-4.22 18.39,9.91 39.41,15.55 61.72,15.55 22.32,0 43.34,-5.64 61.74,-15.55 3.13,-1.69 6.94,0.64 6.94,4.22 v 313.27 c 0,3.57 -3.81,5.9 -6.94,4.21 -18.4,-9.9 -39.42,-15.54 -61.74,-15.54" /><path
         id="path80"
         style="fill:#969797;fill-opacity:1;fill-rule:nonzero;stroke:none"
         d="m 3286.83,3425.18 c 0,-59.65 -48.35,-108.01 -108.02,-108.01 -59.65,0 -108.02,48.36 -108.02,108.01 0,59.66 48.37,108.03 108.02,108.03 59.67,0 108.02,-48.37 108.02,-108.03" /><path
         id="path82"
         style="fill:#969797;fill-opacity:1;fill-rule:nonzero;stroke:none"
         d="m 2204.15,3945.8 h -49.59 v -48.57 c 0,-22.86 -18.6,-41.46 -41.47,-41.46 h -20.74 c -22.86,0 -41.47,18.6 -41.47,41.46 v 48.57 h -131.31 v -48.57 c 0,-22.86 -18.6,-41.46 -41.47,-41.46 h -20.73 c -22.87,0 -41.47,18.6 -41.47,41.46 v 48.57 h -131.32 v -48.56 c 0,-22.87 -18.6,-41.47 -41.46,-41.47 h -20.74 c -22.86,0 -41.47,18.6 -41.47,41.47 v 48.56 h -49.59 c -20.86,0 -37.76,-16.92 -37.76,-37.77 v -553.09 c 0,-20.86 16.9,-37.77 37.76,-37.77 h 672.83 c 20.85,0 37.76,16.91 37.76,37.77 v 553.09 c 0,20.85 -16.91,37.77 -37.76,37.77" /><path
         id="path84"
         style="fill:#ffffff;fill-opacity:1;fill-rule:nonzero;stroke:none"
         d="m 2150.26,3818.96 h -565.05 c -20.86,0 -37.77,-16.9 -37.77,-37.76 v -379.47 c 0,-20.86 16.91,-37.77 37.77,-37.77 h 565.05 c 20.86,0 37.77,16.91 37.77,37.77 v 379.47 c 0,20.86 -16.91,37.76 -37.77,37.76" /><path
         id="path86"
         style="fill:#969797;fill-opacity:1;fill-rule:nonzero;stroke:none"
         d="m 1974.27,3725.38 v -44.55 l -124.4,-257.19 h -74.74 l 124.4,242.78 v 0.94 H 1761.2 v 58.02 h 213.07" /><path
         id="path88"
         style="fill:#969797;fill-opacity:1;fill-rule:nonzero;stroke:none"
         d="m 1643.12,4069.76 h -20.74 c -15.94,0 -28.87,-12.93 -28.87,-28.87 v -143.66 c 0,-15.94 12.93,-28.86 28.87,-28.86 h 20.74 c 15.95,0 28.87,12.92 28.87,28.86 v 143.66 c 0,15.94 -12.92,28.87 -28.87,28.87" /><path
         id="path90"
         style="fill:#969797;fill-opacity:1;fill-rule:nonzero;stroke:none"
         d="m 1878.1,4069.76 h -20.73 c -15.95,0 -28.88,-12.93 -28.88,-28.87 v -143.66 c 0,-15.94 12.93,-28.86 28.88,-28.86 h 20.73 c 15.95,0 28.88,12.92 28.88,28.86 v 143.66 c 0,15.94 -12.93,28.87 -28.88,28.87" /><path
         id="path92"
         style="fill:#969797;fill-opacity:1;fill-rule:nonzero;stroke:none"
         d="m 2113.09,4069.76 h -20.74 c -15.94,0 -28.87,-12.93 -28.87,-28.87 v -143.66 c 0,-15.94 12.93,-28.86 28.87,-28.86 h 20.74 c 15.95,0 28.88,12.92 28.88,28.86 v 143.66 c 0,15.94 -12.93,28.87 -28.88,28.87" /><path
         id="path94"
         style="fill:#969797;fill-opacity:1;fill-rule:nonzero;stroke:none"
         d="m 4561.31,3473.55 c 0,-2.81 -0.08,-5.6 -0.24,-8.4 -4.33,-82.47 -72.57,-147.98 -156.13,-147.98 -83.57,0 -151.81,65.51 -156.15,147.98 -0.15,2.8 -0.24,5.59 -0.24,8.4 0,2.81 0.09,5.61 0.24,8.4 4.34,82.46 72.58,147.97 156.15,147.97 83.56,0 151.8,-65.51 156.13,-147.97 0.16,-2.79 0.24,-5.59 0.24,-8.4" /><path
         id="path96"
         style="fill:#ffffff;fill-opacity:1;fill-rule:nonzero;stroke:none"
         d="m 4561.31,3473.55 c 0,-2.81 -0.08,-5.6 -0.24,-8.4 h -312.28 c -0.15,2.8 -0.24,5.59 -0.24,8.4 0,2.81 0.09,5.61 0.24,8.4 h 312.28 c 0.16,-2.79 0.24,-5.59 0.24,-8.4" /><path
         id="path98"
         style="fill:#969797;fill-opacity:1;fill-rule:nonzero;stroke:none"
         d="m 4338.54,3997.7 v 0 c -73.86,69.36 -189.96,65.7 -259.31,-8.16 L 3796.2,3688.11 c -69.33,-73.85 -65.69,-189.94 8.16,-259.29 h 0.02 c 73.84,-69.35 189.94,-65.7 259.28,8.16 l 283.04,301.43 c 69.34,73.84 65.69,189.94 -8.16,259.29" /><path
         id="path100"
         style="fill:#ffffff;fill-opacity:1;fill-rule:nonzero;stroke:none"
         d="m 3929.89,3404.34 c -40.42,0 -78.88,15.21 -108.29,42.82 -63.62,59.74 -66.79,160.1 -7.06,223.73 l 146.91,156.43 230.76,-216.68 -146.89,-156.43 c -29.76,-31.68 -71.83,-49.87 -115.43,-49.87 v 0" /><path
         id="path102"
         style="fill:#969797;fill-opacity:1;fill-rule:nonzero;stroke:none"
         d="m 5724.12,3738.09 c -3.92,-23.35 -10.33,-46.17 -18.79,-68.23 -3.03,-7.96 -6.35,-15.8 -9.92,-23.53 -19.65,-42.73 -46.97,-82.2 -78.95,-116.8 -42.75,-46.17 -93.67,-84.11 -147.77,-115.99 -56.42,-33.22 -112.46,-67.03 -171.23,-96.37 -0.16,0.09 -0.33,0.15 -0.49,0.24 -58.67,29.16 -114.63,62.79 -170.95,95.8 -54.18,31.76 -105.17,69.62 -147.97,115.69 -21.95,23.63 -41.67,49.56 -58.26,77.22 -2.6,4.27 -5.06,8.58 -7.48,12.9 l -0.14,0.26 c -4.85,8.81 -9.4,17.77 -13.6,26.91 -3.59,7.75 -6.9,15.59 -9.96,23.55 -8.38,21.83 -14.71,44.42 -18.68,67.53 -11.34,66.2 -1.84,136.87 30.2,195.52 5.82,10.61 12.36,20.86 19.66,30.58 33.27,44.46 82.99,77.52 137.35,89.81 15.78,3.58 31.96,5.41 48.2,5.26 h 0.35 c 3.83,-0.03 7.62,-0.15 11.41,-0.41 69.99,-4.28 133.31,-41.12 179.7,-93.6 0.08,0.05 0.13,0.11 0.17,0.17 48.89,55.43 116.58,93.43 191.1,94.25 h 0.21 c 16.39,0.15 32.66,-1.67 48.56,-5.31 54.18,-12.31 103.77,-45.17 137.03,-89.43 47.67,-63.42 63.49,-147.8 50.25,-226.02" /><path
         id="path104"
         style="fill:#ffffff;fill-opacity:1;fill-rule:nonzero;stroke:none"
         d="m 5705.33,3669.86 c -3.03,-7.96 -6.35,-15.8 -9.92,-23.53 l -366.03,1.54 c -4.91,0 -9.24,3.04 -10.98,7.63 l -25.24,67.23 -58.3,-297.47 c -1.09,-5.55 -5.93,-9.52 -11.54,-9.52 -0.23,0 -0.45,0 -0.66,0.03 -5.88,0.33 -10.63,4.94 -11.1,10.81 l -33.4,424.47 -63,-196.67 c -1.56,-4.87 -6.1,-8.19 -11.2,-8.19 h -205.39 c -3.59,7.75 -6.9,15.59 -9.96,23.55 h 206.75 l 78.62,245.48 c 1.7,5.38 6.98,8.76 12.56,8.12 5.59,-0.66 9.94,-5.18 10.37,-10.78 l 31.41,-398.36 49.73,253.8 c 0.99,5.16 5.31,9.04 10.56,9.48 5.24,0.44 10.16,-2.67 12.02,-7.61 l 36.97,-98.51 367.73,-1.5" /><path
         id="path106"
         style="fill:#969797;fill-opacity:1;fill-rule:nonzero;stroke:none"
         d="m 1094.37,2265.19 c 0,-2.32 -0.03,-4.63 -0.07,-6.91 -1.02,-55.47 -14.23,-107.93 -37.1,-154.83 -5.75,-11.81 -12.11,-23.28 -19.05,-34.33 -65.369,-104.32 -181.337,-173.65 -313.486,-173.65 -132.824,0 -249.266,70.03 -314.437,175.17 -6.926,11.11 -13.235,22.64 -18.942,34.49 -22.414,46.61 -35.347,98.68 -36.273,153.64 -0.047,2.13 -0.067,4.27 -0.067,6.42 0,6.45 0.176,12.83 0.477,19.2 2.101,40.9 10.848,80.06 25.187,116.41 2.668,6.78 5.551,13.47 8.633,20.08 17.422,37.5 40.946,71.58 69.297,100.95 5.598,5.8 11.371,11.41 17.336,16.84 65.68,59.78 152.98,96.21 248.789,96.21 95.488,0 182.527,-36.19 248.141,-95.66 5.965,-5.39 11.758,-10.98 17.375,-16.76 28.53,-29.44 52.2,-63.63 69.73,-101.25 3.08,-6.6 5.97,-13.3 8.65,-20.1 14.48,-36.56 23.29,-76 25.35,-117.19 0.3,-6.21 0.46,-12.46 0.46,-18.73" /><path
         id="path108"
         style="fill:#ffffff;fill-opacity:1;fill-rule:nonzero;stroke:none"
         d="m 725.754,2023.36 c -126.863,0 -243.434,30.7 -334.469,81.77 5.707,-11.85 12.016,-23.38 18.942,-34.49 91.707,-44.8 200.968,-68.96 315.527,-68.96 113.269,0 221.336,23.61 312.396,67.44 6.94,11.05 13.3,22.52 19.05,34.33 -90.579,-50.05 -205.966,-80.09 -331.446,-80.09" /><path
         id="path110"
         style="fill:#ffffff;fill-opacity:1;fill-rule:nonzero;stroke:none"
         d="m 1093.91,2283.92 c -95.109,-63.57 -225.379,-102.85 -368.875,-102.85 -143.847,0 -274.433,39.47 -369.613,103.32 -0.301,-6.37 -0.477,-12.75 -0.477,-19.2 0,-2.15 0.02,-4.29 0.067,-6.42 101.25,-64.22 231.773,-99.4 370.023,-99.4 137.875,0 268.094,34.98 369.265,98.91 0.04,2.28 0.07,4.59 0.07,6.91 0,6.27 -0.16,12.52 -0.46,18.73" /><path
         id="path112"
         style="fill:#ffffff;fill-opacity:1;fill-rule:nonzero;stroke:none"
         d="m 1059.91,2421.21 c -91.203,-51.47 -208.191,-82.42 -335.613,-82.42 -127.141,0 -243.93,30.82 -335.055,82.09 -3.082,-6.61 -5.965,-13.3 -8.633,-20.08 97.09,-54.24 217.157,-83.71 343.688,-83.71 126.793,0 247.094,29.57 344.263,84.02 -2.68,6.8 -5.57,13.5 -8.65,20.1" /><path
         id="path114"
         style="fill:#ffffff;fill-opacity:1;fill-rule:nonzero;stroke:none"
         d="m 972.805,2539.22 c -74.246,-27.27 -159.145,-42.76 -249.246,-42.76 -89.477,0 -173.809,15.29 -247.684,42.21 -5.965,-5.43 -11.738,-11.04 -17.336,-16.84 80.215,-30.72 170.816,-47.07 265.02,-47.07 94.832,0 186.015,16.57 266.621,47.7 -5.617,5.78 -11.41,11.37 -17.375,16.76" /><path
         id="path116"
         style="fill:#969797;fill-opacity:1;fill-rule:nonzero;stroke:none"
         d="m 2095.18,2667.02 h -90.6 v -14.18 c 0,-27.21 -22.13,-49.34 -49.33,-49.34 h -175.03 c -27.19,0 -49.33,22.13 -49.33,49.34 v 14.18 h -90.59 c -26.58,0 -48.12,-21.54 -48.12,-48.11 v -675.34 c 0,-26.56 21.54,-48.1 48.12,-48.1 h 454.88 c 26.57,0 48.11,21.54 48.11,48.1 v 675.34 c 0,26.57 -21.54,48.11 -48.11,48.11" /><path
         id="path118"
         style="fill:#ffffff;fill-opacity:1;fill-rule:nonzero;stroke:none"
         d="m 2097.93,1943.09 h -460.39 v 601.01 h 460.39 v -601.01" /><path
         id="path120"
         style="fill:#969797;fill-opacity:1;fill-rule:nonzero;stroke:none"
         d="m 1955.25,2717.67 h -175.03 c -20.14,0 -36.47,-16.33 -36.47,-36.47 v -28.36 c 0,-20.14 16.33,-36.48 36.47,-36.48 h 175.03 c 20.14,0 36.47,16.34 36.47,36.48 v 28.36 c 0,20.14 -16.33,36.47 -36.47,36.47" /><path
         id="path122"
         style="fill:#969797;fill-opacity:1;fill-rule:nonzero;stroke:none"
         d="m 1884.97,2752 h -34.47 c -9.26,0 -16.78,-7.52 -16.78,-16.8 v -39.16 h 68.03 v 39.16 c 0,9.28 -7.52,16.8 -16.78,16.8" /><path
         id="path124"
         style="fill:#ffffff;fill-opacity:1;fill-rule:nonzero;stroke:none"
         d="m 1886.26,2699.15 c 0,-10.23 -8.3,-18.52 -18.53,-18.52 -10.22,0 -18.52,8.29 -18.52,18.52 0,10.23 8.3,18.52 18.52,18.52 10.23,0 18.53,-8.29 18.53,-18.52" /><path
         id="path126"
         style="fill:#969797;fill-opacity:1;fill-rule:nonzero;stroke:none"
         d="m 1711.97,2381.02 c -0.32,0 -0.66,0.02 -0.98,0.06 -2.41,0.29 -4.55,1.68 -5.81,3.76 -7.59,12.5 -15.22,25.22 -22.68,37.79 -2.24,3.77 -1,8.64 2.78,10.88 3.77,2.23 8.64,0.99 10.87,-2.78 5.73,-9.65 11.56,-19.4 17.4,-29.06 l 48.41,47.75 c 3.12,3.09 8.14,3.05 11.23,-0.08 3.07,-3.11 3.04,-8.13 -0.08,-11.22 l -55.57,-54.81 c -1.5,-1.48 -3.5,-2.29 -5.57,-2.29" /><path
         id="path128"
         style="fill:#969797;fill-opacity:1;fill-rule:nonzero;stroke:none"
         d="m 1711.97,2218.47 c -0.32,0 -0.66,0.03 -0.98,0.07 -2.41,0.3 -4.55,1.69 -5.81,3.76 -7.58,12.48 -15.21,25.2 -22.68,37.8 -2.24,3.77 -1,8.64 2.78,10.86 3.77,2.25 8.64,1 10.87,-2.77 5.73,-9.66 11.57,-19.4 17.4,-29.05 l 48.41,47.75 c 3.12,3.09 8.14,3.05 11.23,-0.08 3.07,-3.11 3.04,-8.15 -0.08,-11.22 l -55.57,-54.82 c -1.5,-1.48 -3.5,-2.3 -5.57,-2.3" /><path
         id="path130"
         style="fill:#969797;fill-opacity:1;fill-rule:nonzero;stroke:none"
         d="m 1711.97,2055.94 c -0.32,0 -0.66,0.03 -0.98,0.06 -2.41,0.3 -4.55,1.69 -5.81,3.77 -7.62,12.54 -15.25,25.26 -22.68,37.79 -2.24,3.77 -1,8.64 2.78,10.87 3.77,2.25 8.64,1 10.87,-2.77 5.72,-9.64 11.55,-19.36 17.4,-29.06 l 48.41,47.75 c 3.12,3.08 8.14,3.06 11.23,-0.08 3.07,-3.11 3.04,-8.14 -0.08,-11.21 l -55.57,-54.82 c -1.5,-1.48 -3.5,-2.3 -5.57,-2.3" /><path
         id="path132"
         style="fill:#969797;fill-opacity:1;fill-rule:nonzero;stroke:none"
         d="m 2053.39,2406.88 h -219.67 c -3.14,0 -5.67,2.54 -5.67,5.68 0,3.13 2.53,5.66 5.67,5.66 h 219.67 c 3.13,0 5.67,-2.53 5.67,-5.66 0,-3.14 -2.54,-5.68 -5.67,-5.68" /><path
         id="path134"
         style="fill:#969797;fill-opacity:1;fill-rule:nonzero;stroke:none"
         d="m 2053.39,2241.32 h -219.67 c -3.14,0 -5.67,2.53 -5.67,5.67 0,3.13 2.53,5.67 5.67,5.67 h 219.67 c 3.13,0 5.67,-2.54 5.67,-5.67 0,-3.14 -2.54,-5.67 -5.67,-5.67" /><path
         id="path136"
         style="fill:#969797;fill-opacity:1;fill-rule:nonzero;stroke:none"
         d="m 2053.39,2078.79 h -219.67 c -3.14,0 -5.67,2.54 -5.67,5.67 0,3.12 2.53,5.66 5.67,5.66 h 219.67 c 3.13,0 5.67,-2.54 5.67,-5.66 0,-3.13 -2.54,-5.67 -5.67,-5.67" /><path
         id="path138"
         style="fill:#969797;fill-opacity:1;fill-rule:nonzero;stroke:none"
         d="m 4490.14,1960.27 -87.9,347.79 c -5.49,21.74 -27.55,34.89 -49.27,29.4 l -5.78,-1.47 -33.36,132 c -9.02,-18.27 -21.08,-34.75 -35.5,-48.85 l 23.89,-94.51 -5.78,-1.45 c -21.73,-5.51 -34.88,-27.56 -29.4,-49.28 l 87.89,-347.81 c 5.5,-21.7 27.55,-34.86 49.28,-29.37 l 56.53,14.27 c 21.72,5.49 34.88,27.54 29.4,49.28" /><path
         id="path140"
         style="fill:#969797;fill-opacity:1;fill-rule:nonzero;stroke:none"
         d="m 4153.9,2674.33 c -70.44,0 -127.74,-57.3 -127.74,-127.75 0,-70.45 57.3,-127.74 127.74,-127.74 70.45,0 127.74,57.29 127.74,127.74 0,70.45 -57.29,127.75 -127.74,127.75 z m 0,-293.36 c -91.32,0 -165.61,74.3 -165.61,165.61 0,91.31 74.29,165.6 165.61,165.6 91.32,0 165.61,-74.29 165.61,-165.6 0,-91.31 -74.29,-165.61 -165.61,-165.61" /><path
         id="path142"
         style="fill:#969797;fill-opacity:1;fill-rule:nonzero;stroke:none"
         d="m 4011.37,2323.18 -5.78,1.45 23.88,94.51 c -14.44,14.1 -26.48,30.58 -35.5,48.85 l -33.35,-132 -5.79,1.47 c -21.71,5.49 -43.78,-7.66 -49.26,-29.4 l -87.9,-347.79 c -5.48,-21.74 7.67,-43.79 29.39,-49.28 l 56.53,-14.27 c 21.73,-5.49 43.78,7.67 49.26,29.37 l 87.91,347.81 c 5.48,21.72 -7.66,43.77 -29.39,49.28" /><path
         id="path144"
         style="fill:#969797;fill-opacity:1;fill-rule:nonzero;stroke:none"
         d="m 5296.97,1938.61 c -183.84,0 -333.41,149.57 -333.41,333.42 0,72.81 23.47,140.23 63.23,195.12 l 178.19,-145.26 h 68.3 l -218.99,178.52 c 60.85,64.63 147.12,105.06 242.68,105.06 183.87,0 333.42,-149.57 333.42,-333.44 0,-71.29 -22.5,-137.44 -60.76,-191.7 l -174.57,142.28 h -68.3 l 215.78,-175.87 c -61,-66.43 -148.5,-108.13 -245.57,-108.13 z m 0,710 c -207.63,0 -376.57,-168.93 -376.57,-376.58 0,-207.64 168.94,-376.56 376.57,-376.56 207.66,0 376.58,168.92 376.58,376.56 0,207.65 -168.92,376.58 -376.58,376.58" /><path
         id="path146"
         style="fill:#969797;fill-opacity:1;fill-rule:nonzero;stroke:none"
         d="m 5457.62,2234.84 h -409.96 v 74.81 h 409.96 v -74.81" /><path
         id="path148"
         style="fill:#969797;fill-opacity:1;fill-rule:nonzero;stroke:none"
         d="m 5488.77,2234.84 h -18.2 v 74.81 h 18.2 v -74.81" /><path
         id="path150"
         style="fill:#969797;fill-opacity:1;fill-rule:nonzero;stroke:none"
         d="m 5517.54,2234.84 h -18.2 v 74.81 h 18.2 v -74.81" /><path
         id="path152"
         style="fill:#969797;fill-opacity:1;fill-rule:nonzero;stroke:none"
         d="m 5546.31,2234.84 h -18.2 v 74.81 h 18.2 v -74.81" /><path
         id="path154"
         style="fill:#969797;fill-opacity:1;fill-rule:nonzero;stroke:none"
         d="m 5499.67,2424.29 c 0,0 -0.59,-1.58 -1.68,-4.23 -0.55,-1.33 -1.17,-2.97 -1.86,-4.79 -0.64,-1.82 -1.38,-3.85 -1.95,-6.05 -0.59,-2.19 -1.04,-4.54 -1.07,-6.86 -0.06,-2.32 0.31,-4.53 1.19,-6.52 0.84,-1.86 2.38,-3.66 4.55,-6 1.03,-1.19 2.24,-2.48 3.38,-4.06 0.27,-0.39 0.56,-0.82 0.82,-1.25 l 0.11,-0.16 0.06,-0.08 0.14,-0.27 0.16,-0.25 0.31,-0.53 c 0.35,-0.55 0.92,-1.84 1.35,-2.77 1.44,-3.77 2.07,-7.66 2.01,-11.35 0,-3.71 -0.67,-7.23 -1.64,-10.49 -0.53,-1.62 -1.04,-3.2 -1.74,-4.67 l -0.26,-0.55 -0.15,-0.35 -0.12,-0.23 -0.49,-0.98 c -0.33,-0.62 -0.74,-1.4 -1.11,-2.05 -1.54,-2.6 -3.18,-4.86 -4.8,-6.81 -3.25,-3.93 -6.35,-6.7 -8.58,-8.6 -1.07,-0.96 -2.01,-1.64 -2.62,-2.13 -0.62,-0.49 -0.95,-0.74 -0.95,-0.74 0,0 0.64,1.58 1.89,4.18 1.23,2.62 3.09,6.27 5,10.57 0.96,2.14 1.9,4.47 2.74,6.93 0.19,0.59 0.39,1.21 0.58,1.82 l 0.31,1.03 0.08,0.26 c -0.02,-0.04 0.04,0.13 0.04,0.17 l 0.12,0.49 c 0.33,1.25 0.6,2.56 0.84,3.89 0.41,2.65 0.62,5.39 0.49,8.06 -0.18,2.68 -0.65,5.28 -1.59,7.54 -0.84,2.21 -2.24,4.12 -4.31,6.66 -1.96,2.44 -4.44,5.67 -5.57,9.63 -1.11,3.77 -0.94,7.58 -0.19,10.74 0.76,3.21 2.01,5.88 3.34,8.17 2.71,4.53 5.64,7.54 7.73,9.57 1.04,1.03 1.93,1.77 2.52,2.28 0.59,0.51 0.92,0.78 0.92,0.78" /><path
         id="path156"
         style="fill:#969797;fill-opacity:1;fill-rule:nonzero;stroke:none"
         d="m 5538.57,2459.96 c 0,0 -0.58,-1.58 -1.68,-4.24 -0.52,-1.33 -1.15,-2.95 -1.83,-4.77 -0.67,-1.83 -1.41,-3.86 -1.97,-6.07 -0.57,-2.17 -1.02,-4.53 -1.06,-6.84 -0.08,-2.34 0.31,-4.55 1.19,-6.54 0.82,-1.85 2.39,-3.63 4.53,-6 1.04,-1.19 2.27,-2.46 3.38,-4.06 0.3,-0.39 0.57,-0.8 0.84,-1.23 l 0.12,-0.17 0.04,-0.06 0.17,-0.28 0.14,-0.27 0.29,-0.53 c 0.36,-0.54 0.94,-1.81 1.35,-2.75 1.47,-3.77 2.09,-7.68 2.03,-11.37 -0.02,-3.69 -0.68,-7.22 -1.64,-10.49 -0.52,-1.6 -1.05,-3.18 -1.76,-4.66 l -0.23,-0.55 -0.16,-0.33 -0.13,-0.26 -0.49,-0.97 c -0.31,-0.63 -0.74,-1.39 -1.11,-2.05 -1.51,-2.58 -3.17,-4.85 -4.79,-6.82 -3.26,-3.93 -6.37,-6.7 -8.57,-8.57 -1.08,-0.98 -2.03,-1.67 -2.62,-2.15 -0.65,-0.47 -0.96,-0.73 -0.96,-0.73 0,0 0.63,1.57 1.9,4.16 1.23,2.62 3.06,6.27 5,10.57 0.95,2.15 1.89,4.49 2.73,6.93 0.2,0.61 0.39,1.22 0.59,1.82 l 0.31,1.06 0.08,0.25 c -0.02,-0.06 0.02,0.12 0.04,0.16 l 0.11,0.48 c 0.32,1.27 0.61,2.56 0.84,3.89 0.43,2.66 0.61,5.41 0.47,8.09 -0.15,2.67 -0.62,5.27 -1.56,7.54 -0.84,2.18 -2.25,4.1 -4.32,6.66 -1.97,2.44 -4.45,5.64 -5.56,9.6 -1.12,3.79 -0.94,7.6 -0.2,10.77 0.74,3.2 2.01,5.88 3.34,8.14 2.7,4.53 5.65,7.56 7.74,9.59 1.01,1.04 1.91,1.78 2.5,2.29 0.6,0.5 0.91,0.76 0.91,0.76" /><path
         id="path158"
         style="fill:#969797;fill-opacity:1;fill-rule:nonzero;stroke:none"
         d="m 2639.8,1931.91 c -0.07,-15.48 18.24,-23.19 29.66,-12.73 27.38,25.07 60.65,43.82 97.03,51.51 60.21,12.71 114.94,-13.9 167.94,-39.36 127.89,-61.51 299.59,-43.33 408.54,50.13 28.37,24.35 36.13,58.39 38.08,94.28 4.78,87.75 -12.55,175.09 -40.93,257.82 -14.38,41.94 -31.58,82.88 -50.39,123.02 -18.58,39.63 -35.4,82.5 -67.18,113.74 -31.83,31.26 -78.09,52.54 -122.32,57.63 -43.51,5 -92.99,-11.96 -116.17,-50.92 -14.83,-24.96 -19.93,-61.15 -5,-87.76 20.16,-35.91 68.39,-36.3 102.15,-21.32 26.63,11.83 58.53,35.39 88.99,22.22 18.81,-8.11 26.07,-28.53 29.22,-47.32 6.48,-38.4 -0.2,-76.84 -4.94,-114.99 -4,-32.26 -7.39,-64.6 -10.17,-96.98 -2.42,-27.98 -0.66,-59.5 -10.99,-85.98 -14.66,-37.54 -37.69,6.78 -48.83,21.03 -28.07,35.88 -76.04,38.72 -116.3,23.29 -26.75,-10.24 -48.27,-27.17 -67.61,-47.85 -5.44,-5.81 -11.6,-11.37 -19.19,-13.8 -16.2,-5.21 -24.01,7.24 -33.2,17.51 -58.26,65.17 -155.84,91.21 -237.16,56.05 -6.23,-2.71 -10.09,-9.04 -10.11,-15.82 l -1.12,-253.4" /><path
         id="path160"
         style="fill:#969797;fill-opacity:1;fill-rule:nonzero;stroke:none"
         d="m 2185.99,759.77 c 0.66,-4.278 1.28,-8.321 1.42,-12.43 0.3,-8.93 -3.17,-18.11 -6.53,-26.988 l -0.91,-2.422 c -4.28,-11.469 -8.78,-20.289 -14.16,-27.75 -4.57,-6.36 -9.79,-11.461 -15.52,-15.192 -1.92,-1.226 -3.9,-2.406 -5.81,-3.527 -4.99,-2.93 -10.16,-5.961 -14.61,-10.641 -7.43,-7.82 -11.29,-17.289 -15.02,-26.449 -1.94,-4.769 -3.96,-9.711 -6.45,-14.301 -3.73,-6.89 -9.92,-12.34 -15.91,-17.601 l -0.79,-0.699 c -10.57,-9.301 -22.58,-17.45 -35.72,-24.188 -6.9,-3.613 -14.75,-3.891 -23.05,-4.191 -6.22,-0.239 -12.64,-0.481 -18.79,-2.192 -8.95,-2.488 -15.72,-7.34 -21.15,-11.73 -2.16,-1.75 -4.26,-3.559 -6.37,-5.379 -4.57,-3.961 -9.3,-8.051 -14.56,-11.27 -6.73,-4.129 -14.64,-6.039 -23.53,-7.922 -1.77,-0.359 -3.54,-0.75 -5.31,-1.128 -10.56,-2.309 -21.49,-4.68 -32.28,-4.68 -1.55,0 -3.07,0.039 -4.55,0.14 -8.2,0.532 -15.57,3.122 -23.37,5.86 -5.31,1.871 -10.79,3.781 -16.59,5.031 -5.72,1.219 -11.35,1.859 -16.75,1.859 -5.84,0 -11.49,-0.742 -16.79,-2.179 -2.22,-0.602 -4.43,-1.238 -6.64,-1.891 -6.29,-1.871 -12.26,-3.629 -18.48,-4.308 -7.44,-0.821 -15.88,-0.192 -26.29,1.988 -13.6,2.832 -29.1,6.742 -40.98,14.07 -5.43,3.371 -9.77,8.91 -13.97,14.27 -1.02,1.289 -2.02,2.57 -3.03,3.8 -6.17,7.602 -13.21,13.079 -20.93,16.34 -7.54,3.18 -15.62,4.262 -23.42,5.309 -2.02,0.269 -4.03,0.543 -6.02,0.832 -14.97,2.301 -26.32,9.539 -36.36,17.039 -12.01,8.961 -23.79,18.789 -28.53,29.789 -1.96,4.57 -3.05,9.402 -4.21,14.512 -1.2,5.308 -2.44,10.808 -4.75,16.039 -4.25,9.672 -10.73,18.301 -18.72,24.961 -3.6,2.988 -7.46,5.449 -11.19,7.84 -6.64,4.23 -12.91,8.218 -17.26,14.808 -5.95,9.051 -10.79,21.223 -14.76,37.25 -3.21,12.93 -3.83,26.512 -1.85,40.332 1.88,13.11 0.91,24.16 -3.07,34.821 -1.3,3.488 -3.01,6.757 -4.66,9.918 -2.46,4.71 -4.8,9.191 -5.74,14.179 -3.28,17.27 -3.05,35.36 0.67,52.313 1.78,8.078 4.05,16.547 8.65,23.73 2.07,3.219 4.48,6.379 6.8,9.418 2.95,3.86 6.01,7.871 8.56,12.219 3.92,6.723 6.51,14.34 7.49,22.082 0.51,4.019 0.46,7.988 0.41,11.828 -0.04,3.902 -0.09,7.621 0.4,11.332 1.6,11.879 7.8,22.929 13.5,32.359 0.88,1.46 1.76,2.95 2.64,4.44 4.98,8.42 10.14,17.12 17.18,23.64 3.7,3.41 8.02,5.73 12.6,8.19 1.41,0.76 2.84,1.52 4.26,2.32 5.96,3.37 12.73,7.19 18.19,12.12 5.55,5.01 8.98,11.98 11.73,17.59 7.23,14.7 14.63,25.12 23.28,32.81 4.68,4.15 10.14,8.29 16.7,12.68 l 2.86,1.92 c 5.57,3.74 11.31,7.59 17.22,10.42 5.02,2.39 10.34,2.71 14.9,2.71 2.1,0 4.2,-0.09 6.31,-0.16 1.41,-0.06 2.82,-0.11 4.23,-0.15 13.32,-0.24 26.32,4.3 36.48,12.87 2.77,2.32 5.39,4.75 7.91,7.11 6.84,6.34 13.29,12.35 22,15.81 8.7,3.45 18.41,5.19 28.83,5.19 3.7,0 7.48,-0.22 11.25,-0.67 6.05,-0.71 11.97,-1.99 17.59,-3.78 2.58,-0.82 5.05,-1.91 7.67,-3.05 3.32,-1.44 6.76,-2.94 10.45,-3.91 7.27,-1.87 15.54,-2.26 24.68,-1.13 5.47,0.69 10.89,1.94 16.14,3.15 7.29,1.67 14.16,3.26 21.25,3.47 0.71,0.02 1.42,0.04 2.14,0.04 17.87,0 36.71,-7.15 53.04,-20.12 3.79,-3.02 7.09,-6.46 10.59,-10.1 2.71,-2.84 5.53,-5.78 8.59,-8.49 9.92,-8.74 22.05,-14.55 35.1,-16.81 l 1.9,-0.33 c 12.66,-2.18 23.59,-4.06 33.77,-11.49 8.81,-6.45 17.66,-15.04 26.26,-25.53 4.84,-5.89 9.06,-11.28 11.7,-17.54 1.31,-3.11 2.26,-6.33 3.27,-9.74 1.28,-4.33 2.61,-8.81 4.73,-13.06 4.46,-8.93 11.83,-16.53 22.55,-23.24 10.16,-6.37 17.6,-12.21 23.24,-21.66 6.3,-10.57 13.44,-22.551 17.67,-35.27 2.64,-7.929 3.72,-14.761 3.41,-21.48 -0.12,-2.781 -0.4,-5.629 -0.66,-8.379 -0.57,-6 -1.16,-12.211 -0.43,-18.492 1.42,-12.117 6.98,-21.809 12.36,-31.188 2.89,-5.05 5.88,-10.242 8.19,-15.769 5.27,-12.66 7,-27.07 5.28,-44.102 -1.04,-10.261 -4.19,-20.468 -9.11,-29.5 -1.36,-2.511 -2.94,-4.961 -4.47,-7.34 -4.15,-6.46 -8.45,-13.121 -9.3,-21.789 -0.65,-6.671 0.35,-13.152 1.31,-19.421 z m -318.26,473.93 c -207.38,0 -376.11,-168.73 -376.11,-376.118 0,-207.391 168.73,-376.113 376.11,-376.113 207.39,0 376.12,168.722 376.12,376.113 0,207.388 -168.73,376.118 -376.12,376.118" /><path
         id="path162"
         style="fill:#969797;fill-opacity:1;fill-rule:nonzero;stroke:none"
         d="M 835.66,1063.93 541.383,711.59 c -16.973,-20.309 -14.258,-50.57 6.062,-67.539 v 0 c 20.328,-16.961 50.567,-14.262 67.535,6.07 l 294.274,352.339 c 16.973,20.32 14.258,50.56 -6.066,67.55 v 0 c -20.321,16.96 -50.555,14.25 -67.528,-6.08" /><path
         id="path164"
         style="fill:#ffffff;fill-opacity:1;fill-rule:nonzero;stroke:none"
         d="m 704.684,801.941 c -8.266,-9.882 -19.121,-14.961 -30.45,-19.652 l -2.078,-0.848 c -9.105,-3.742 -18.511,-7.609 -24.988,-14.199 -6.293,-6.402 -10.488,-15.621 -11.777,-25.933 -1.938,-15.387 -6.743,-27.5 -14.684,-37.008 -0.043,-0.051 -0.078,-0.09 -0.121,-0.153 -5.715,-6.796 -13.043,-12.457 -21.191,-16.398 -3.692,-1.801 -7.391,-2.762 -10.965,-3.699 -3.59,-0.961 -6.985,-1.852 -9.578,-3.442 -4.95,-3.039 -7.598,-6.66 -7.856,-10.73 -0.254,-3.969 -3.672,-6.969 -7.637,-6.727 -3.961,0.258 -6.972,3.657 -6.718,7.629 0.566,8.891 5.648,16.532 14.675,22.078 4.411,2.711 9.211,3.981 13.45,5.102 3.047,0.801 5.925,1.551 8.375,2.73 6.332,3.071 12.019,7.461 16.437,12.719 0.031,0.031 0.067,0.07 0.094,0.11 6.203,7.421 9.84,16.839 11.445,29.589 1.688,13.411 7.305,25.571 15.797,34.223 8.531,8.699 19.82,13.32 29.781,17.41 l 2.051,0.84 c 11.559,4.777 20.895,9.188 27.215,18.688 4.074,6.152 6.32,14.14 6.867,24.449 0.883,16.691 8.242,31.429 20.199,40.492 6.254,4.719 13.184,7.449 19.887,10.059 2.531,1 4.922,1.941 7.246,2.96 7.434,3.301 15.117,6.719 20.235,12.11 4.109,4.34 7.371,11.699 9.949,22.48 0.769,3.231 1.277,6.641 1.808,10.25 0.813,5.442 1.641,11.082 3.485,16.641 4.312,13.051 13.504,18.621 22.539,23.211 3.887,1.969 7.758,3.699 11.492,5.367 9.258,4.141 18,8.051 25.312,14.91 15.434,14.481 23.848,36.111 21.977,56.481 -0.363,3.94 2.539,7.44 6.504,7.82 3.949,0.35 7.457,-2.56 7.816,-6.51 2.274,-24.69 -7.859,-50.85 -26.457,-68.279 -9.09,-8.512 -19.351,-13.109 -29.277,-17.539 -3.578,-1.602 -7.285,-3.262 -10.863,-5.07 -8.52,-4.332 -12.996,-7.661 -15.387,-14.903 -1.449,-4.39 -2.16,-9.168 -2.91,-14.23 -0.563,-3.77 -1.141,-7.66 -2.051,-11.489 -2.027,-8.488 -5.633,-20.738 -13.496,-29.039 -7.102,-7.48 -16.523,-11.66 -24.844,-15.351 -2.613,-1.16 -5.265,-2.188 -7.832,-3.199 -6.055,-2.379 -11.781,-4.621 -16.449,-8.161 -8.445,-6.378 -13.875,-17.519 -14.523,-29.781 -0.684,-12.937 -3.708,-23.289 -9.243,-31.629 -1.035,-1.558 -2.129,-3.011 -3.261,-4.379" /><path
         id="path166"
         style="fill:#969797;fill-opacity:1;fill-rule:nonzero;stroke:none"
         d="M 720.305,1068.92 515.922,824.211 c -27.582,-33.031 -23.168,-82.16 9.859,-109.742 v 0 l 304.262,364.311 v 0 c -33.023,27.57 -82.156,23.16 -109.738,-9.86" /><path
         id="path168"
         style="fill:#969797;fill-opacity:1;fill-rule:nonzero;stroke:none"
         d="m 729.004,646.25 204.387,244.699 c 27.578,33.02 23.168,82.16 -9.86,109.741 v 0.01 L 619.27,636.391 v 0 c 33.027,-27.582 82.152,-23.172 109.734,9.859" /><path
         id="path170"
         style="fill:#969797;fill-opacity:1;fill-rule:nonzero;stroke:none"
         d="m 724.652,524.172 c -183.839,0 -333.414,149.566 -333.414,333.41 0,72.059 22.981,138.828 61.989,193.418 l 140.511,-114.551 27.668,33.133 -140.871,114.828 c 60.926,65.53 147.809,106.58 244.117,106.58 183.848,0 333.418,-149.56 333.418,-333.408 0,-72.062 -22.98,-138.832 -61.992,-193.41 L 855.57,778.711 827.906,745.57 968.77,630.75 C 907.848,565.242 820.969,524.172 724.652,524.172 Z m 0,709.978 c -207.636,0 -376.566,-168.93 -376.566,-376.568 0,-207.641 168.93,-376.57 376.566,-376.57 207.645,0 376.568,168.929 376.568,376.57 0,207.638 -168.923,376.568 -376.568,376.568" /><path
         id="path172"
         style="fill:#ffffff;fill-opacity:1;fill-rule:nonzero;stroke:none"
         d="m 3209.5,886.91 h -397.37 v 17.539 H 3209.5 V 886.91" /><path
         id="path174"
         style="fill:#ffffff;fill-opacity:1;fill-rule:nonzero;stroke:none"
         d="m 3209.5,810.711 h -397.37 v 17.527 h 397.37 v -17.527" /><path
         id="path176"
         style="fill:#969797;fill-opacity:1;fill-rule:nonzero;stroke:none"
         d="m 3123.3,1029.23 h -224.97 c -47.61,0 -86.2,-38.578 -86.2,-86.199 V 493.18 c 0,-47.61 38.59,-86.2 86.2,-86.2 h 224.97 c 47.61,0 86.2,38.59 86.2,86.2 v 449.851 c 0,47.621 -38.59,86.199 -86.2,86.199" /><path
         id="path178"
         style="fill:#969797;fill-opacity:1;fill-rule:nonzero;stroke:none"
         d="m 3120.12,1018.86 h -218.6 v 71 h 218.6 v -71" /><path
         id="path180"
         style="fill:#969797;fill-opacity:1;fill-rule:nonzero;stroke:none"
         d="m 3158.01,1214.04 h -294.37 v -109.29 h 294.37 v 109.29" /><path
         id="path182"
         style="fill:#969797;fill-opacity:1;fill-rule:nonzero;stroke:none"
         d="m 3010.82,1308.19 v 0 c -26.44,0 -47.88,-21.44 -47.88,-47.87 v -48.67 h 95.75 v 48.67 c 0,26.43 -21.43,47.87 -47.87,47.87" /><path
         id="path184"
         style="fill:#ffffff;fill-opacity:1;fill-rule:nonzero;stroke:none"
         d="m 2917.48,1104.75 h -9.57 v 109.29 h 9.57 v -109.29" /><path
         id="path186"
         style="fill:#ffffff;fill-opacity:1;fill-rule:nonzero;stroke:none"
         d="m 2982.9,1104.75 h -9.58 v 109.29 h 9.58 v -109.29" /><path
         id="path188"
         style="fill:#ffffff;fill-opacity:1;fill-rule:nonzero;stroke:none"
         d="m 3048.32,1104.75 h -9.57 v 109.29 h 9.57 v -109.29" /><path
         id="path190"
         style="fill:#ffffff;fill-opacity:1;fill-rule:nonzero;stroke:none"
         d="m 3113.74,1104.75 h -9.58 v 109.29 h 9.58 v -109.29" /><path
         id="path192"
         style="fill:#969797;fill-opacity:1;fill-rule:nonzero;stroke:none"
         d="m 4582.57,1084.29 -149.05,118.52 c -1.81,2.05 -3.98,3.78 -6.41,5.09 -3.36,1.82 -7.21,2.87 -11.3,2.87 h -29.1 -106.49 c -13.09,0 -23.73,-10.63 -23.73,-23.73 v -68.52 c 0,-53.08 -45.84,-96.09 -102.35,-96.09 -28.27,0 -53.86,10.74 -72.37,28.14 -18.53,17.39 -29.99,41.42 -29.99,67.95 v 68.52 c 0,13.1 -10.63,23.73 -23.75,23.73 h -106.94 -28.62 c -4.88,0 -9.39,-1.49 -13.16,-3.99 l -0.11,-0.07 c -0.96,-0.65 -1.87,-1.39 -2.72,-2.19 l -0.08,-0.06 -151.17,-120.17 c -9.47,-7.53 -11.05,-21.31 -3.52,-30.79 l 71.92,-90.469 c 7.53,-9.472 21.34,-11.039 30.81,-3.511 l 44.3,35.222 V 528.141 c 0,-13.11 10.63,-23.75 23.73,-23.75 h 523.34 c 13.1,0 23.72,10.64 23.72,23.75 v 466.238 l 43.86,-34.859 c 9.47,-7.528 23.24,-5.961 30.78,3.511 l 71.91,90.469 c 7.54,9.48 5.96,23.26 -3.51,30.79" /><path
         id="path194"
         style="fill:#ffffff;fill-opacity:1;fill-rule:nonzero;stroke:none"
         d="m 4439.53,758.352 h -570.79 v 14.32 h 570.79 v -14.32" /><path
         id="path196"
         style="fill:#ffffff;fill-opacity:1;fill-rule:nonzero;stroke:none"
         d="m 4439.53,667.242 h -570.79 v 14.34 h 570.79 v -14.34" /><path
         id="path198"
         style="fill:#969797;fill-opacity:1;fill-rule:nonzero;stroke:none"
         d="m 5726.43,857.582 c 0,-237.172 -192.29,-429.453 -429.46,-429.453 -237.17,0 -429.43,192.281 -429.43,429.453 0,237.168 192.26,429.448 429.43,429.448 237.17,0 429.46,-192.28 429.46,-429.448" /><path
         id="path200"
         style="fill:#ffffff;fill-opacity:1;fill-rule:nonzero;stroke:none"
         d="m 5296.97,522.172 c -184.93,0 -335.39,150.469 -335.39,335.41 0,184.948 150.46,335.408 335.39,335.408 184.94,0 335.41,-150.46 335.41,-335.408 0,-184.941 -150.47,-335.41 -335.41,-335.41" /><path
         id="path202"
         style="fill:#969797;fill-opacity:1;fill-rule:nonzero;stroke:none"
         d="m 5315.41,1156.16 c 0,-10.18 -8.26,-18.43 -18.44,-18.43 -10.17,0 -18.42,8.25 -18.42,18.43 0,10.18 8.25,18.44 18.42,18.44 10.18,0 18.44,-8.26 18.44,-18.44" /><path
         id="path204"
         style="fill:#969797;fill-opacity:1;fill-rule:nonzero;stroke:none"
         d="m 4998.41,876.02 c 10.17,0 18.43,-8.27 18.43,-18.438 0,-10.172 -8.26,-18.422 -18.43,-18.422 -10.19,0 -18.44,8.25 -18.44,18.422 0,10.168 8.25,18.438 18.44,18.438" /><path
         id="path206"
         style="fill:#969797;fill-opacity:1;fill-rule:nonzero;stroke:none"
         d="m 5278.55,558.992 c 0,10.188 8.25,18.438 18.42,18.438 10.18,0 18.44,-8.25 18.44,-18.438 0,-10.172 -8.26,-18.433 -18.44,-18.433 -10.17,0 -18.42,8.261 -18.42,18.433" /><path
         id="path208"
         style="fill:#969797;fill-opacity:1;fill-rule:nonzero;stroke:none"
         d="m 5595.55,839.16 c -10.18,0 -18.42,8.25 -18.42,18.422 0,10.168 8.24,18.438 18.42,18.438 10.19,0 18.43,-8.27 18.43,-18.438 0,-10.172 -8.24,-18.422 -18.43,-18.422" /><path
         id="path210"
         style="fill:#969797;fill-opacity:1;fill-rule:nonzero;stroke:none"
         d="m 5375.63,698.48 -64.83,146.61 c 0,0.031 0,0.039 0,0.07 v 227.52 c 0,7.29 -5.33,13.86 -12.58,14.48 -8.2,0.72 -15.08,-5.73 -15.08,-13.75 V 839.16 h 0.08 l 67.42,-152.488 c 3.25,-7.371 12.13,-10.473 19.34,-6.512 6.39,3.5 8.59,11.672 5.65,18.32" /></g></g></svg>